<svg width="16" height="16" viewBox="0 0 16 16" fill="none" xmlns="http://www.w3.org/2000/svg">
<path d="M15.4591 0.0610058C15.3443 -0.016273 15.1955 -0.0203923 15.0768 0.0501307L0.558314 8.66465C0.435064 8.73781 0.367507 8.87738 0.386456 9.01925C0.405075 9.16095 0.50707 9.2781 0.64482 9.31666L4.33393 10.3437C4.44598 10.3747 4.5661 10.3496 4.65623 10.2761L10.5498 5.46162L6.43859 10.7092C6.38899 10.7721 6.36246 10.8499 6.36246 10.9298V15.6426C6.36246 15.8018 6.46726 15.9415 6.62 15.9859C6.65312 15.9958 6.68673 16.0002 6.72002 16.0002C6.83997 16.0002 6.95482 15.9399 7.02155 15.8348L9.58823 11.8061L13.3405 12.8504C13.439 12.8779 13.5448 12.8614 13.6311 12.8057C13.717 12.7499 13.775 12.6599 13.7905 12.5587L15.6128 0.41082C15.6334 0.274387 15.5736 0.13812 15.4591 0.0610058Z" fill="white"/>
</svg>
