<svg width="32" height="33" viewBox="0 0 32 33" fill="none" xmlns="http://www.w3.org/2000/svg">
<g clip-path="url(#clip0_113_5700)">
<path d="M29.6302 0.5H11.9417C10.681 0.5 9.65552 1.5256 9.65552 2.78619V8.15204H11.7425V2.78619C11.7425 2.67635 11.8319 2.58696 11.9417 2.58696H29.6302C29.74 2.58696 29.8294 2.67635 29.8294 2.78619V20.4747C29.8294 20.5846 29.74 20.674 29.6302 20.674H24.4317V22.7609H29.6302C30.8908 22.7609 31.9164 21.7353 31.9164 20.4747V2.78619C31.9163 1.5256 30.8908 0.5 29.6302 0.5Z" fill="white"/>
<path d="M20.0584 10.2393H2.36994C1.10928 10.2393 0.0836792 11.2649 0.0836792 12.5255V30.214C0.0837488 31.4747 1.10928 32.5003 2.36994 32.5003H20.0584C21.3191 32.5003 22.3447 31.4747 22.3447 30.2141V12.5255C22.3448 11.2649 21.319 10.2393 20.0584 10.2393ZM20.0585 30.4133H2.36994C2.26003 30.4133 2.17064 30.3239 2.17064 30.2141V12.5255C2.17064 12.4156 2.26003 12.3262 2.36994 12.3262H20.0584C20.1683 12.3262 20.2577 12.4156 20.2577 12.5255V30.2141H20.2578C20.2578 30.3239 20.1683 30.4133 20.0585 30.4133Z" fill="white"/>
</g>
<defs>
<clipPath id="clip0_113_5700">
<rect width="32" height="32" fill="white" transform="translate(0 0.5)"/>
</clipPath>
</defs>
</svg>
