<svg width="114" height="17" viewBox="0 0 114 17" fill="none" xmlns="http://www.w3.org/2000/svg">
<path d="M9.792 16L0.48 0.639999H7.248L15.192 15.4H12.744L20.688 0.639999H27.36L18.144 16H9.792ZM29.6438 0.639999H35.6438V16H29.6438V0.639999ZM38.2819 10.36H44.8339C44.9459 10.696 45.2739 10.984 45.8179 11.224C46.3619 11.448 47.0899 11.624 48.0019 11.752C48.9299 11.864 50.0019 11.92 51.2179 11.92C52.4179 11.92 53.3619 11.888 54.0499 11.824C54.7539 11.744 55.2499 11.616 55.5379 11.44C55.8259 11.248 55.9699 10.992 55.9699 10.672C55.9699 10.368 55.7379 10.136 55.2739 9.976C54.8099 9.8 53.9859 9.68 52.8019 9.616C51.6179 9.552 49.9539 9.52 47.8099 9.52C46.2099 9.52 44.8259 9.448 43.6579 9.304C42.5059 9.144 41.5539 8.904 40.8019 8.584C40.0659 8.248 39.5219 7.832 39.1699 7.336C38.8179 6.824 38.6419 6.216 38.6419 5.512C38.6419 4.296 39.0499 3.296 39.8659 2.512C40.6979 1.712 41.9459 1.12 43.6099 0.735999C45.2899 0.335999 47.3859 0.136 49.8979 0.136C53.5779 0.136 56.3859 0.671999 58.3219 1.744C60.2739 2.8 61.2499 4.328 61.2499 6.328H55.0339C54.9539 5.8 54.4579 5.4 53.5459 5.128C52.6339 4.84 51.3379 4.696 49.6579 4.696C47.9939 4.696 46.7539 4.792 45.9379 4.984C45.1379 5.176 44.7379 5.504 44.7379 5.968C44.7379 6.208 44.8499 6.4 45.0739 6.544C45.2979 6.688 45.6819 6.808 46.2259 6.904C46.7859 6.984 47.5699 7.04 48.5779 7.072C49.5859 7.104 50.8659 7.12 52.4179 7.12C54.1299 7.12 55.5859 7.208 56.7859 7.384C57.9859 7.544 58.9539 7.792 59.6899 8.128C60.4419 8.464 60.9859 8.896 61.3219 9.424C61.6579 9.936 61.8259 10.544 61.8259 11.248C61.8259 12.464 61.4419 13.456 60.6739 14.224C59.9059 14.992 58.6899 15.56 57.0259 15.928C55.3619 16.296 53.1859 16.48 50.4979 16.48C48.9779 16.48 47.5779 16.392 46.2979 16.216C45.0339 16.04 43.9059 15.784 42.9139 15.448C41.9219 15.096 41.0819 14.672 40.3939 14.176C39.7059 13.664 39.1779 13.096 38.8099 12.472C38.4579 11.832 38.2819 11.128 38.2819 10.36ZM63.2578 0.639999H88.2178V5.2H63.2578V0.639999ZM72.7378 4.888H78.7378V16H72.7378V4.888ZM91.1873 13.672V10.072H107.603V13.672H91.1873ZM85.8113 16L96.1073 0.639999H102.779L113.171 16H106.571L97.6673 2.248H101.243L92.4113 16H85.8113Z" fill="#EFECE6"/>
</svg>
