<svg width="16" height="17" viewBox="0 0 16 17" fill="none" xmlns="http://www.w3.org/2000/svg">
<g clip-path="url(#clip0_113_2676)">
<path d="M8.00012 8.25414C10.0855 8.25414 11.7761 6.56357 11.7761 4.47814C11.7761 2.39272 10.0855 0.702148 8.00012 0.702148C5.91469 0.702148 4.22412 2.39272 4.22412 4.47814C4.22412 6.56357 5.91469 8.25414 8.00012 8.25414Z" fill="url(#paint0_radial_113_2676)"/>
<path d="M12.4922 8.83845C12.4326 8.798 12.3129 8.7202 12.3129 8.7202C11.3477 10.0603 9.77404 10.9343 8.00002 10.9343C6.22582 10.9343 4.65204 10.06 3.68686 8.71973C3.68686 8.71973 3.58617 8.78564 3.53617 8.81933C1.40305 10.2561 0 12.6938 0 15.4591V16.298H16V15.4591C16 12.7061 14.6094 10.2778 12.4922 8.83845Z" fill="url(#paint1_radial_113_2676)"/>
</g>
<defs>
<radialGradient id="paint0_radial_113_2676" cx="0" cy="0" r="1" gradientUnits="userSpaceOnUse" gradientTransform="translate(2.46199 -1.25329) rotate(45.5885) scale(13.3096 667.205)">
<stop stop-color="#9E00FF"/>
<stop offset="1" stop-color="#FF1D89"/>
</radialGradient>
<radialGradient id="paint1_radial_113_2676" cx="0" cy="0" r="1" gradientUnits="userSpaceOnUse" gradientTransform="translate(-3.73333 6.75749) rotate(25.8025) scale(21.9186 861.343)">
<stop stop-color="#9E00FF"/>
<stop offset="1" stop-color="#FF1D89"/>
</radialGradient>
<clipPath id="clip0_113_2676">
<rect width="16" height="16" fill="white" transform="translate(0 0.5)"/>
</clipPath>
</defs>
</svg>
